# Blender 4.5.9 LTS
# www.blender.org
mtllib Fungus2.mtl
o Fungus2
v -0.879532 -0.422608 0.023230
v -0.625069 -0.418845 0.653526
v -0.002232 -0.417244 0.921686
v 0.621855 -0.418827 0.656565
v 0.879266 -0.422583 0.027523
v 0.626145 -0.426347 -0.603030
v 0.002046 -0.427935 -0.869009
v -0.623468 -0.426366 -0.606220
v -0.997285 0.073348 -0.014101
v -0.713443 0.099969 0.694444
v -0.012346 0.111317 0.996459
v 0.696198 0.100630 0.712036
v 0.997054 0.074269 0.010415
v 0.714011 0.047639 -0.698360
v 0.012189 0.036334 -0.999240
v -0.696839 0.046987 -0.715713
v -0.773337 1.132049 0.025011
v -0.567082 1.136146 0.584340
v -0.030380 1.138019 0.839990
v 0.525023 1.136467 0.628135
v 0.772422 1.132493 0.085686
v 0.572287 1.128392 -0.474203
v 0.030288 1.126590 -0.720128
v -0.529153 1.128080 -0.516776
v -0.597225 1.805887 0.065673
v -0.422692 1.805887 0.480258
v -0.005065 1.805887 0.650815
v 0.415411 1.805887 0.487264
v 0.597034 1.805886 0.075728
v 0.422547 1.805887 -0.338832
v 0.004999 1.805887 -0.509361
v -0.415337 1.805887 -0.345778
v -0.544480 1.909590 -0.379727
v -0.644388 1.909311 0.069094
v -0.522583 1.882470 0.571674
v -0.051520 1.877945 0.748851
v 0.573132 1.880464 0.578281
v 0.701514 1.902017 0.091964
v 0.569977 1.898902 -0.458859
v 0.118934 1.917645 -0.597975
v 1.201624 2.508182 0.139131
v 0.994201 2.448774 -0.850192
v 0.084153 2.430924 -1.289644
v -0.945004 2.410892 -0.952958
v -1.196434 2.540525 -0.060859
v -0.827183 2.583553 0.800743
v -0.061470 2.552746 1.203930
v 0.581017 2.583568 1.004736
v -0.440790 3.102499 -0.607717
v -0.722172 3.119280 -0.108119
v -0.477776 3.158617 0.498229
v -0.012968 3.062153 0.756990
v 0.289988 3.110825 0.649834
v 0.729383 3.107816 -0.000504
v 0.615129 3.028322 -0.528994
v 0.102891 3.057025 -0.770350
v 0.167764 3.497569 -0.307784
v 0.110183 3.613907 -0.032606
v 0.024732 3.462449 0.391113
v -0.176694 3.411458 0.418814
v -0.343894 3.434997 0.252520
v -0.376807 3.464518 -0.104801
v -0.207256 3.467581 -0.348359
v 0.011998 3.429022 -0.443549
v 0.773811 1.970358 1.102498
v 0.778482 2.086335 1.180768
v 1.365926 2.041727 0.119935
v 1.297951 1.932331 0.112116
v 1.118199 1.977843 -0.928364
v 1.164709 2.086586 -0.974046
v 0.240113 1.858523 -1.412050
v 0.229081 1.946679 -1.492265
v -0.962240 1.866462 -0.903919
v -1.015728 1.957190 -0.983567
v -1.297007 1.966724 0.276591
v -1.368477 2.065943 0.250592
v -0.874931 1.940459 0.968905
v -0.929794 2.051116 1.012907
v 0.006970 1.911820 1.369205
v 0.005947 2.018698 1.446884
vn -0.9101 -0.1862 0.3702
vn -0.9303 -0.0040 0.3667
vn -0.9302 -0.0075 0.3669
vn -0.9192 -0.0100 -0.3936
vn -0.9193 -0.0152 -0.3932
vn -0.8990 -0.2334 -0.3706
vn -0.3907 -0.1373 0.9102
vn -0.4032 0.0020 0.9151
vn -0.4033 0.0027 0.9151
vn 0.3766 -0.1369 0.9162
vn 0.3736 -0.0009 0.9276
vn 0.3733 0.0045 0.9277
vn 0.9046 -0.1855 0.3837
vn 0.9186 -0.0125 0.3949
vn 0.9186 -0.0008 0.3953
vn 0.9046 -0.2330 -0.3569
vn 0.9313 -0.0213 -0.3637
vn 0.9316 -0.0059 -0.3635
vn 0.3823 -0.2536 -0.8886
vn 0.3977 -0.0173 -0.9173
vn 0.3979 -0.0061 -0.9174
vn -0.3685 -0.2535 -0.8944
vn -0.3686 -0.0114 -0.9295
vn -0.3685 -0.0109 -0.9295
vn -0.9136 0.2028 0.3524
vn -0.9139 0.2013 0.3524
vn -0.8891 0.2290 -0.3964
vn -0.8894 0.2278 -0.3964
vn -0.4027 0.1908 0.8952
vn -0.4028 0.1899 0.8954
vn 0.3567 0.1899 0.9147
vn 0.3566 0.1904 0.9146
vn 0.8962 0.2003 0.3959
vn 0.8958 0.2016 0.3960
vn 0.9088 0.2259 -0.3508
vn 0.9085 0.2272 -0.3507
vn 0.3864 0.2502 -0.8877
vn 0.3863 0.2507 -0.8876
vn -0.3421 0.2516 -0.9053
vn -0.3423 0.2511 -0.9054
vn -0.8832 0.2514 -0.3958
vn -0.9061 0.2328 0.3533
vn -0.3958 0.2443 0.8852
vn 0.3484 0.2452 0.9047
vn 0.8873 0.2330 0.3981
vn 0.9035 0.2498 -0.3484
vn 0.3824 0.2744 -0.8823
vn -0.3368 0.2753 -0.9004
vn 0.1952 -0.9683 0.1559
vn 0.3233 -0.8657 0.3822
vn 0.5291 -0.8484 -0.0191
vn 0.2859 -0.9582 0.0051
vn 0.5458 -0.8204 -0.1704
vn 0.1809 -0.9824 -0.0470
vn 0.1830 -0.8065 -0.5622
vn -0.2866 -0.4889 -0.8239
vn -0.7223 -0.6497 -0.2368
vn -0.7304 -0.6827 -0.0196
vn -0.7302 -0.6830 -0.0152
vn -0.7015 -0.6820 0.2067
vn -0.1130 -0.9831 0.1440
vn -0.2013 -0.8401 0.5036
vn 0.0215 -0.8458 0.5330
vn -0.0234 -0.9624 0.2706
vn 0.3455 0.6232 -0.7016
vn 0.3678 0.5187 -0.7718
vn 0.3668 0.5234 -0.7691
vn 0.3449 0.6279 -0.6977
vn 0.3408 0.6565 -0.6730
vn 0.7153 0.6624 -0.2225
vn 0.8491 0.4894 -0.1988
vn 0.8567 0.4771 -0.1963
vn 0.7237 0.6534 -0.2221
vn 0.6193 0.6723 0.4055
vn 0.7345 0.5031 0.4555
vn 0.7445 0.4848 0.4590
vn 0.6235 0.6670 0.4079
vn -0.0699 0.6535 0.7537
vn -0.0897 0.5180 0.8507
vn 0.2304 0.5139 0.8263
vn 0.1355 0.6482 0.7493
vn 0.0654 0.6699 0.7396
vn -0.1923 0.6596 0.7266
vn -0.3353 0.6235 0.7063
vn -0.3667 0.4916 0.7899
vn -0.7390 0.6269 0.2466
vn -0.7803 0.5276 0.3357
vn -0.7860 0.5126 0.3455
vn -0.7391 0.6265 0.2474
vn -0.2148 0.6112 -0.7618
vn -0.3037 0.3768 -0.8751
vn -0.3060 0.3676 -0.8782
vn -0.2138 0.6119 -0.7615
vn -0.6751 0.6419 -0.3637
vn -0.7064 0.6229 -0.3360
vn -0.6788 0.6397 -0.3604
vn -0.3170 0.8225 -0.4722
vn -0.1139 0.7890 -0.6038
vn 0.6356 0.7386 -0.2248
vn -0.1886 0.9801 -0.0626
vn -0.4640 0.8637 -0.1967
vn -0.0294 0.9142 -0.4043
vn -0.2392 0.9463 0.2174
vn -0.1835 0.9352 0.3028
vn 0.5759 0.7231 0.3814
vn -0.3469 0.6310 0.6939
vn -0.7349 0.6465 0.2049
vn 0.8593 -0.4811 -0.1737
vn 0.4659 -0.5347 -0.7050
vn -0.2808 -0.6939 -0.6631
vn -0.7776 -0.6056 -0.1690
vn -0.7553 -0.4918 0.4331
vn -0.5686 -0.5265 0.6321
vn -0.5960 -0.5241 0.6083
vn -0.3697 -0.5241 0.7672
vn 0.3134 -0.5479 0.7756
vn 0.7889 -0.4241 0.4446
vn 0.2571 0.4197 0.8705
vn 0.0157 -0.9964 0.0836
vn 0.0855 -0.9931 0.0797
vn 0.0925 -0.9957 0.0037
vn 0.7954 0.3760 0.4754
vn 0.9010 0.3950 -0.1795
vn 0.0721 -0.9974 -0.0090
vn 0.0453 -0.9979 0.0469
vn 0.0486 -0.9979 0.0426
vn 0.3799 0.4527 -0.8067
vn -0.0031 -0.9981 0.0612
vn 0.0035 -0.9980 0.0631
vn -0.3421 0.2012 -0.9179
vn -0.0632 -0.9974 0.0337
vn -0.0760 -0.9968 0.0263
vn -0.9446 0.1604 -0.2864
vn -0.0833 -0.9957 0.0398
vn -0.8122 0.4278 0.3967
vn -0.3988 0.3710 0.8386
vn -0.0000 -1.0000 0.0060
vt 0.552885 0.592362
vt 0.557242 0.497578
vt 0.626210 0.504598
vt 0.620209 0.598128
vt 0.619327 0.692414
vt 0.551933 0.689585
vt 0.560703 0.403968
vt 0.634458 0.403720
vt 0.014252 0.956217
vt 0.009112 0.862390
vt 0.078346 0.856428
vt 0.088228 0.957685
vt 0.002992 0.767471
vt 0.070681 0.762795
vt 0.000245 0.669629
vt 0.068485 0.668644
vt 0.000245 0.571671
vt 0.069637 0.565803
vt 0.551933 0.789854
vt 0.624535 0.796173
vt 0.761252 0.512651
vt 0.757269 0.592221
vt 0.763169 0.672916
vt 0.774799 0.433189
vt 0.214264 0.850338
vt 0.230367 0.930206
vt 0.207924 0.770542
vt 0.210936 0.689938
vt 0.228129 0.606029
vt 0.783188 0.756500
vt 0.854183 0.584957
vt 0.861628 0.650019
vt 0.856378 0.520708
vt 0.868699 0.458722
vt 0.309345 0.833386
vt 0.324068 0.896140
vt 0.304317 0.769383
vt 0.310163 0.704448
vt 0.326888 0.640337
vt 0.880257 0.714241
vt 0.808152 0.277463
vt 0.784839 0.265039
vt 0.804760 0.208096
vt 0.824281 0.210082
vt 0.782630 0.151114
vt 0.806008 0.133224
vt 0.727098 0.125239
vt 0.745584 0.108713
vt 0.726608 0.110917
vt 0.719907 0.133571
vt 0.669710 0.167378
vt 0.645946 0.161724
vt 0.653299 0.227154
vt 0.637508 0.228651
vt 0.672788 0.283797
vt 0.657473 0.297619
vt 0.726392 0.306859
vt 0.719035 0.322014
vt 0.727098 0.306870
vt 0.730789 0.290076
vt 0.443223 0.198382
vt 0.353165 0.156299
vt 0.423829 0.035313
vt 0.502752 0.139132
vt 0.537777 0.235040
vt 0.551443 0.203958
vt 0.435934 0.270598
vt 0.340532 0.276993
vt 0.459952 0.374468
vt 0.371006 0.404131
vt 0.481760 0.417919
vt 0.405226 0.488996
vt 0.533575 0.350340
vt 0.551443 0.377889
vt 0.063000 0.352810
vt 0.157765 0.390962
vt 0.106612 0.506434
vt 0.025148 0.429199
vt 0.092595 0.264600
vt 0.186644 0.279826
vt 0.050789 0.111540
vt 0.157465 0.042143
vt 0.195524 0.177392
vt 0.085183 0.187469
vt 0.013943 0.208983
vt 0.000245 0.173971
vt 0.550536 0.280454
vt 0.362911 0.573987
vt 0.419640 0.544907
vt 0.431933 0.583143
vt 0.021526 0.255156
vt 0.369743 0.533381
vt 0.396705 0.521504
vt 0.415901 0.629157
vt 0.389127 0.646814
vt 0.362911 0.635973
vt 0.000245 0.348427
vt 0.016038 0.312996
vt 0.264123 0.269894
vt 0.286420 0.137810
vt 0.302526 0.140995
vt 0.279802 0.269684
vt 0.326983 0.000593
vt 0.346269 0.000245
vt 0.248887 0.001655
vt 0.263633 0.174750
vt 0.247327 0.172923
vt 0.231031 0.000245
vt 0.260337 0.323209
vt 0.245797 0.317655
vt 0.244291 0.430289
vt 0.227776 0.424413
vt 0.203996 0.565313
vt 0.184837 0.563845
vt 0.302051 0.413769
vt 0.322871 0.520197
vt 0.302941 0.521014
vt 0.284241 0.410954
vt 0.740198 0.388266
vt 0.839449 0.346856
vt 0.904927 0.212044
vt 0.883854 0.071610
vt 0.768866 0.000245
vt 0.718924 0.000245
vt 0.575672 0.101622
vt 0.551933 0.265142
vt 0.611183 0.351103
vt 0.726608 0.403230
vt 0.999755 0.524770
vt 0.965122 0.609986
vt 0.965295 0.439515
vt 0.880747 0.646068
vt 0.880747 0.403720
vt 0.467065 0.727762
vt 0.466874 0.557271
vt 0.551443 0.521504
vt 0.551443 0.763853
vt 0.432424 0.642542
s 1
usemtl Fungus2
f 1/1/1 2/2/1 10/3/2 9/4/3
f 9/4/4 16/5/5 8/6/6 1/1/6
f 2/2/7 3/7/7 11/8/8 10/3/9
f 3/9/10 4/10/10 12/11/11 11/12/12
f 4/10/13 5/13/13 13/14/14 12/11/15
f 5/13/16 6/15/16 14/16/17 13/14/18
f 6/15/19 7/17/19 15/18/20 14/16/21
f 7/19/22 8/6/22 16/5/23 15/20/24
f 9/4/3 10/3/2 18/21/25 17/22/26
f 17/22/27 24/23/28 16/5/5 9/4/4
f 10/3/9 11/8/8 19/24/29 18/21/30
f 11/12/12 12/11/11 20/25/31 19/26/32
f 12/11/15 13/14/14 21/27/33 20/25/34
f 13/14/18 14/16/17 22/28/35 21/27/36
f 14/16/21 15/18/20 23/29/37 22/28/38
f 15/20/24 16/5/23 24/23/39 23/30/40
f 25/31/41 32/32/41 24/23/28 17/22/27
f 26/33/42 25/31/42 17/22/26 18/21/25
f 27/34/43 26/33/43 18/21/30 19/24/29
f 28/35/44 27/36/44 19/26/32 20/25/31
f 29/37/45 28/35/45 20/25/34 21/27/33
f 30/38/46 29/37/46 21/27/36 22/28/35
f 31/39/47 30/38/47 22/28/38 23/29/37
f 23/30/40 24/23/39 32/32/48 31/40/48
f 37/41/49 28/42/50 29/43/51 38/44/52
f 38/44/52 29/43/51 30/45/53 39/46/54
f 39/46/55 30/45/55 31/47/55 40/48/55
f 40/49/56 31/50/56 32/51/56 33/52/56
f 33/52/57 32/51/57 25/53/58 34/54/59
f 34/54/59 25/53/58 26/55/60 35/56/60
f 35/56/61 26/55/62 27/57/63 36/58/64
f 36/59/64 27/60/63 28/42/50 37/41/49
f 55/61/65 42/62/66 43/63/67 56/64/68
f 57/65/69 55/61/65 56/64/68 64/66/69
f 54/67/70 41/68/71 42/62/72 55/61/73
f 53/69/74 48/70/75 41/68/76 54/67/77
f 52/71/78 47/72/79 48/70/80 53/69/81
f 52/71/78 53/69/81 59/73/82 60/74/83
f 51/75/84 46/76/85 47/77/79 52/78/78
f 50/79/86 45/80/87 46/76/88 51/75/89
f 56/81/90 43/82/91 44/83/92 49/84/93
f 49/84/94 44/83/95 45/80/95 50/79/96
f 63/85/97 64/86/98 56/81/90 49/84/93
f 54/67/70 55/61/73 57/65/99 58/87/99
f 58/88/100 63/89/97 62/90/101
f 62/91/101 63/85/97 49/84/94 50/79/96
f 58/88/100 57/92/102 64/93/98 63/89/97
f 61/94/103 60/95/104 59/96/104 58/88/100
f 58/87/105 59/73/105 53/69/74 54/67/77
f 58/88/100 62/90/101 61/94/103
f 51/75/84 52/78/78 60/97/83 61/98/106
f 61/98/107 62/91/107 50/79/86 51/75/89
f 68/99/108 69/100/108 70/101/108 67/102/108
f 69/100/109 71/103/109 72/104/109 70/101/109
f 71/105/110 73/106/110 74/107/110 72/108/110
f 73/106/111 75/109/111 76/110/111 74/107/111
f 75/109/112 77/111/113 78/112/114 76/110/112
f 77/111/113 79/113/115 80/114/115 78/112/114
f 66/115/116 80/116/116 79/117/116 65/118/116
f 65/118/117 68/99/117 67/102/117 66/115/117
f 47/72/79 80/116/118 66/115/118 48/70/80
f 79/119/119 36/59/64 37/41/49 65/120/120
f 65/120/120 37/41/49 38/44/52 68/121/121
f 48/70/75 66/115/122 67/102/122 41/68/76
f 41/68/71 67/102/123 70/101/123 42/62/72
f 68/121/121 38/44/52 39/46/54 69/122/124
f 69/122/124 39/46/54 40/48/125 71/123/126
f 42/62/66 70/101/127 72/104/127 43/63/67
f 71/124/126 40/49/125 33/52/128 73/125/129
f 43/82/91 72/108/130 74/107/130 44/83/92
f 73/125/129 33/52/128 34/54/131 75/126/132
f 44/83/133 74/107/133 76/110/133 45/80/133
f 75/126/132 34/54/131 35/56/61 77/127/134
f 45/80/87 76/110/135 78/112/135 46/76/88
f 77/127/134 35/56/61 36/58/64 79/128/119
f 46/76/85 78/112/136 80/114/136 47/77/79
f 5/129/137 4/130/137 6/131/137
f 3/132/137 7/133/137 6/131/137 4/130/137
f 2/134/137 8/135/137 7/136/137 3/137/137
f 2/134/137 1/138/137 8/135/137
